<svg preserveAspectRatio="xMidYMid meet" data-bbox="0 0 64 64" xmlns="http://www.w3.org/2000/svg" viewBox="0 0 64 64" height="64" width="64" data-type="ugc" role="presentation" aria-hidden="true" aria-labelledby="svgcid--hqt8xw8o1ody"><title id="svgcid--hqt8xw8o1ody"></title>
    <g>
        <path fill="#ffffff" d="M64 0v64H0V0h64z"></path>
        <path stroke-linejoin="round" stroke-linecap="round" stroke-width="3" stroke="#000000" d="M32 45.333c7.364 0 13.333-5.97 13.333-13.333 0-7.364-5.97-13.333-13.333-13.333-7.364 0-13.334 5.97-13.334 13.333 0 7.364 5.97 13.333 13.334 13.333z" fill="none"></path>
        <path stroke-linejoin="round" stroke-linecap="round" stroke-width="3" stroke="#000000" d="M32 2.667V8" fill="none"></path>
        <path stroke-linejoin="round" stroke-linecap="round" stroke-width="3" stroke="#000000" d="M32 56v5.333" fill="none"></path>
        <path stroke-linejoin="round" stroke-linecap="round" stroke-width="3" stroke="#000000" d="m11.253 11.253 3.787 3.787" fill="none"></path>
        <path stroke-linejoin="round" stroke-linecap="round" stroke-width="3" stroke="#000000" d="m48.96 48.96 3.787 3.787" fill="none"></path>
        <path stroke-linejoin="round" stroke-linecap="round" stroke-width="3" stroke="#000000" d="M2.667 32H8" fill="none"></path>
        <path stroke-linejoin="round" stroke-linecap="round" stroke-width="3" stroke="#000000" d="M56 32h5.333" fill="none"></path>
        <path stroke-linejoin="round" stroke-linecap="round" stroke-width="3" stroke="#000000" d="m11.253 52.747 3.787-3.787" fill="none"></path>
        <path stroke-linejoin="round" stroke-linecap="round" stroke-width="3" stroke="#000000" d="m48.96 15.04 3.787-3.787" fill="none"></path>
    </g>
</svg>